<svg width="16" height="16" viewBox="0 0 16 16" fill="none" xmlns="http://www.w3.org/2000/svg">
<g clip-path="url(#clip0_134_2313)">
<path d="M15.844 8.18429C15.844 7.64047 15.7999 7.09371 15.7059 6.55872H8.16001V9.63937H12.4812C12.3019 10.6329 11.7257 11.5119 10.882 12.0704V14.0693H13.46C14.9739 12.6759 15.844 10.6182 15.844 8.18429Z" fill="#3784FB"/>
<path d="M8.16 16.0005C10.3176 16.0005 12.1372 15.2921 13.463 14.0692L10.885 12.0703C10.1677 12.5583 9.24176 12.8346 8.16294 12.8346C6.07586 12.8346 4.30625 11.4266 3.6713 9.53351H1.011V11.5941C2.36908 14.2956 5.1352 16.0005 8.16 16.0005Z" fill="#34A853"/>
<path d="M3.66837 9.53356C3.33326 8.53999 3.33326 7.46411 3.66837 6.47054V4.40991H1.01101C-0.123657 6.67043 -0.123657 9.33367 1.01101 11.5942L3.66837 9.53356Z" fill="#F5BE00"/>
<path d="M8.16 3.16644C9.30055 3.1488 10.4029 3.57798 11.2289 4.36578L13.5129 2.08174C12.0667 0.72367 10.1471 -0.0229773 8.16 0.000539111C5.1352 0.000539111 2.36908 1.70548 1.011 4.40987L3.66836 6.4705C4.30037 4.57449 6.07292 3.16644 8.16 3.16644Z" fill="#EF5A56"/>
</g>
<defs>
<clipPath id="clip0_134_2313">
<rect width="16" height="16" fill="white"/>
</clipPath>
</defs>
</svg>
